<?xml version="1.0" encoding="UTF-8"?><svg id="uuid-564bd742-9719-4943-9c24-f4c434788522" xmlns="http://www.w3.org/2000/svg" viewBox="0 0 595.28 748.12"><defs><style>.uuid-1cba58cb-e241-44bf-9f9c-448645b3edbd{fill:#fff;}</style></defs><polygon class="uuid-1cba58cb-e241-44bf-9f9c-448645b3edbd" points="436.51 442.05 365.57 517.67 440.87 596.11 441.1 596.11 451.22 596.15 451.61 565.72 442.04 555.74 405.4 517.56 442.13 479.65 451.72 469.74 451.75 442.1 438.58 442.06 436.51 442.05"/><polygon class="uuid-1cba58cb-e241-44bf-9f9c-448645b3edbd" points="317.68 621.02 280.07 621.02 280.08 185.73 254.87 212.77 254.86 644.48 342.9 644.48 342.91 595.76 440.87 596.11 382.03 570.64 342.98 571.01 342.91 565.26 342.91 467.59 377.14 467.27 436.51 442.05 342.91 441.72 342.91 185.73 317.69 212.77 317.68 621.02"/><path class="uuid-1cba58cb-e241-44bf-9f9c-448645b3edbd" d="M380.08,103.64H118.3v81.9l161.77.19h62.84v-.19h134.06v-81.9h-96.89ZM254.87,162.09h-111.36v-35h83.14c15.57,0,28.23,11.78,28.23,26.26v8.75ZM270.92,125.54,271.71,126.71s24.78.38,39.39.38c11.27-19.69,38.97-22.09,56.02-22.73-21.76,4.43-41.92,18.36-49.42,47.05v10.68h-37.61v-8.75c0-9.69-2.99-18.73-8.16-26.38M451.75,162.09h-108.83v-8.75c0-14.48,12.66-26.26,28.21-26.26h80.63v35Z"/></svg>