<?xml version="1.0" encoding="UTF-8"?><svg id="uuid-ecac0f6c-5555-4b30-9dae-31377726c607" xmlns="http://www.w3.org/2000/svg" viewBox="0 0 1133.23 347.47"><defs><style>.uuid-5cbeae22-7b2d-4de0-8e60-b2e6ff88909f{fill:#fff;}</style></defs><path class="uuid-5cbeae22-7b2d-4de0-8e60-b2e6ff88909f" d="M122.67,58.02c-32.61,0-59.15,26.54-59.15,59.15v113.11c0,32.62,26.54,59.15,59.15,59.15s59.15-26.53,59.15-59.15v-113.11c0-32.61-26.54-59.15-59.15-59.15M122.67,294.25c-35.27,0-63.97-28.69-63.97-63.97v-113.11c0-35.27,28.7-63.96,63.97-63.96s63.96,28.69,63.96,63.96v113.11c0,35.28-28.69,63.97-63.96,63.97"/><path class="uuid-5cbeae22-7b2d-4de0-8e60-b2e6ff88909f" d="M336.68,212.77c-1.76,0-3.08-.41-3.97-1.22-.88-.82-1.32-2.05-1.32-3.68v-64.36h-24.43c-1.76,0-3.08-.41-3.97-1.22-.88-.82-1.32-2.05-1.32-3.68s.45-2.86,1.32-3.68c.88-.82,2.21-1.22,3.97-1.22h59.44c1.76,0,3.08.41,3.97,1.22.88.82,1.32,2.05,1.32,3.68s-.44,2.86-1.32,3.68c-.88.82-2.21,1.22-3.97,1.22h-24.43v64.36c0,1.55-.45,2.76-1.36,3.61-.9.86-2.21,1.29-3.93,1.29"/><path class="uuid-5cbeae22-7b2d-4de0-8e60-b2e6ff88909f" d="M446.87,212.77c-9.61,0-16.72-2.13-21.32-6.4-4.6-4.26-6.89-10.84-6.89-19.77v-48.12c0-1.63.44-2.86,1.32-3.68.88-.81,2.2-1.22,3.97-1.22s3.08.41,3.96,1.22c.88.82,1.33,2.05,1.33,3.68v48.12c0,4.17.53,7.44,1.6,9.81,1.07,2.37,2.88,4.06,5.45,5.05,2.56,1,6.09,1.49,10.58,1.49h15.11c4.49,0,8.02-.49,10.58-1.49,2.56-.99,4.38-2.68,5.45-5.05,1.07-2.37,1.61-5.64,1.61-9.81v-48.12c0-1.63.44-2.86,1.32-3.68.88-.81,2.21-1.22,3.97-1.22s3.08.41,3.97,1.22c.88.82,1.32,2.05,1.32,3.68v48.12c0,8.92-2.29,15.51-6.86,19.77-4.58,4.27-11.69,6.4-21.35,6.4h-15.11Z"/><path class="uuid-5cbeae22-7b2d-4de0-8e60-b2e6ff88909f" d="M557.19,171.42h24.18c4.78,0,8.19-.94,10.2-2.8s3.02-5.02,3.02-9.46v-3.5c0-4.4-1.01-7.54-3.02-9.43-2.01-1.89-5.42-2.84-10.2-2.84h-24.18v28.03ZM601.51,213c-1.38.82-2.7,1.07-3.97.76-1.26-.31-2.33-1.11-3.21-2.39l-19.52-30.13h-17.63v26.63c0,3.27-1.77,4.9-5.3,4.9s-5.28-1.63-5.28-4.9v-69.38c0-3.27,1.76-4.9,5.28-4.9h29.47c7.68,0,13.57,1.89,17.66,5.69,4.09,3.79,6.14,9.26,6.14,16.38v3.5c0,6.19-1.55,11.13-4.66,14.8-3.1,3.68-7.59,5.97-13.47,6.86l16.5,25.52c1.59,2.72.92,4.94-2.01,6.66"/><path class="uuid-5cbeae22-7b2d-4de0-8e60-b2e6ff88909f" d="M661.46,212.77c-3.53,0-5.29-1.63-5.29-4.9v-69.38c0-3.27,1.76-4.9,5.29-4.9,1.81,0,3.57.97,5.29,2.92l50.62,60.5h-2.64v-58.52c0-3.27,1.77-4.9,5.29-4.9s5.29,1.63,5.29,4.9v69.38c0,3.27-1.76,4.9-5.29,4.9-1.89,0-3.65-.97-5.29-2.92l-50.62-60.5h2.64v58.52c0,3.27-1.76,4.9-5.29,4.9"/><path class="uuid-5cbeae22-7b2d-4de0-8e60-b2e6ff88909f" d="M785.44,212.77c-2.64,0-3.97-1.22-3.97-3.68v-69.2c0-2.45,1.32-3.68,3.97-3.68s3.97,1.23,3.97,3.68v31.65l35.64-33.99c1.85-1.79,3.69-1.81,5.54-.06,1.97,1.67,2.01,3.41.13,5.2l-27.71,26.4,32.62,37.61c1.63,1.95,1.45,3.68-.56,5.2-2.02,1.56-3.87,1.38-5.54-.52l-32.05-36.91-8.06,7.65v26.98c0,2.46-1.32,3.68-3.97,3.68"/><path class="uuid-5cbeae22-7b2d-4de0-8e60-b2e6ff88909f" d="M902.8,212.77c-2.64,0-3.97-1.22-3.97-3.68v-69.2c0-2.45,1.32-3.68,3.97-3.68h46.53c2.64,0,3.97,1.23,3.97,3.68s-1.32,3.68-3.97,3.68h-42.56v26.8h27.71c2.64,0,3.97,1.23,3.97,3.68s-1.33,3.68-3.97,3.68h-27.71v27.68h42.56c2.64,0,3.97,1.22,3.97,3.67s-1.32,3.68-3.97,3.68h-46.53Z"/><path class="uuid-5cbeae22-7b2d-4de0-8e60-b2e6ff88909f" d="M1040.7,212.77c-2.64,0-3.97-1.22-3.97-3.68v-25.28l-28.4-41.76c-1.35-2.06-.92-3.77,1.26-5.14,2.27-1.32,4.1-.93,5.48,1.17l25.63,37.84,26.32-37.9c.67-.97,1.48-1.55,2.43-1.75.94-.19,1.94.06,2.99.76,2.31,1.29,2.7,2.96,1.2,5.02l-28.96,41.76v25.28c0,2.46-1.32,3.68-3.97,3.68"/><polygon class="uuid-5cbeae22-7b2d-4de0-8e60-b2e6ff88909f" points="154.91 197.81 138.3 215.52 155.94 233.9 155.99 233.9 158.36 233.91 158.45 226.78 156.21 224.44 147.63 215.5 156.23 206.62 158.48 204.29 158.48 197.82 155.4 197.81 154.91 197.81"/><polygon class="uuid-5cbeae22-7b2d-4de0-8e60-b2e6ff88909f" points="127.08 239.74 118.27 239.74 118.27 137.76 112.37 144.1 112.36 245.23 132.98 245.23 132.99 233.82 155.93 233.9 142.15 227.93 133 228.02 132.99 226.67 132.99 203.8 141 203.72 154.92 197.81 132.99 197.73 132.99 137.76 127.08 144.1 127.08 239.74"/><path class="uuid-5cbeae22-7b2d-4de0-8e60-b2e6ff88909f" d="M158.49,132.23h-25.49v-2.05c0-3.39,2.96-6.15,6.6-6.15h18.89v8.2ZM116.31,123.94s5.81.09,9.23.09c2.64-4.62,9.13-5.18,13.12-5.33-5.1,1.04-9.82,4.3-11.58,11.02v2.5h-8.81v-2.05c0-2.27-.7-4.39-1.91-6.18M112.37,132.23h-26.09v-8.2h19.47c3.65,0,6.62,2.76,6.62,6.15v2.05ZM141.69,118.53h-61.32v19.18l37.89.05h14.72v-.05h31.4v-19.18h-22.7Z"/></svg>