<?xml version="1.0" encoding="UTF-8"?><svg id="uuid-6d08f3c8-907a-4ba2-b645-eb2c49631571" xmlns="http://www.w3.org/2000/svg" viewBox="0 0 595.28 748.12"><defs><style>.uuid-6eefb3b7-42d2-4a77-9eee-ff6d84d9043b{fill:#957b60;}</style></defs><path class="uuid-6eefb3b7-42d2-4a77-9eee-ff6d84d9043b" d="M297.64,696.36c-94.32,0-171.05-76.73-171.05-171.05V222.81c0-94.32,76.73-171.05,171.05-171.05s171.05,76.73,171.05,171.05v302.5c0,94.32-76.73,171.05-171.05,171.05ZM297.64,64.64c-87.22,0-158.17,70.96-158.17,158.17v302.5c0,87.22,70.96,158.17,158.17,158.17h0c87.22,0,158.17-70.96,158.17-158.17V222.81c0-87.22-70.96-158.17-158.17-158.17Z"/><polygon class="uuid-6eefb3b7-42d2-4a77-9eee-ff6d84d9043b" points="383.86 438.45 339.42 485.82 386.59 534.96 386.73 534.97 393.07 534.99 393.32 515.92 387.32 509.68 364.37 485.75 387.37 462 393.38 455.8 393.4 438.48 385.15 438.45 383.86 438.45"/><polygon class="uuid-6eefb3b7-42d2-4a77-9eee-ff6d84d9043b" points="309.41 550.57 285.85 550.57 285.86 277.88 270.07 294.82 270.06 565.27 325.21 565.27 325.22 534.75 386.59 534.96 349.73 519.01 325.26 519.24 325.22 515.64 325.22 454.45 346.66 454.25 383.86 438.45 325.22 438.24 325.22 277.88 309.42 294.82 309.41 550.57"/><path class="uuid-6eefb3b7-42d2-4a77-9eee-ff6d84d9043b" d="M348.51,226.45h-163.99v51.31l101.35.12h39.36v-.12h83.98v-51.31h-60.7ZM270.07,263.07h-69.77v-21.93h52.08c9.75,0,17.68,7.38,17.68,16.45v5.48ZM280.12,240.17,280.61,240.9s15.53.24,24.67.24c7.06-12.34,24.41-13.84,35.09-14.24-13.63,2.78-26.26,11.5-30.96,29.48v6.69h-23.56v-5.48c0-6.07-1.87-11.73-5.11-16.53M393.4,263.07h-68.18v-5.48c0-9.07,7.93-16.45,17.67-16.45h50.51v21.93Z"/></svg>