<?xml version="1.0" encoding="UTF-8"?><svg id="uuid-4d832acc-7d1b-48c2-9ece-4b43e80d7067" xmlns="http://www.w3.org/2000/svg" viewBox="0 0 841.89 193.26"><defs><style>.uuid-db6726a7-b0dc-4559-a153-c66ffcbdaf51{fill:#fff;}</style></defs><path class="uuid-db6726a7-b0dc-4559-a153-c66ffcbdaf51" d="M72.84,135.29c-1.75,0-3.06-.4-3.93-1.22-.87-.81-1.31-2.02-1.31-3.64v-63.75h-24.2c-1.75,0-3.06-.41-3.93-1.22-.87-.81-1.31-2.02-1.31-3.64s.44-2.84,1.31-3.64c.87-.81,2.18-1.22,3.93-1.22h58.88c1.75,0,3.06.4,3.93,1.22.87.81,1.31,2.02,1.31,3.64s-.44,2.83-1.31,3.64c-.87.81-2.18,1.22-3.93,1.22h-24.2v63.75c0,1.54-.45,2.74-1.34,3.59-.89.85-2.19,1.27-3.9,1.27Z"/><path class="uuid-db6726a7-b0dc-4559-a153-c66ffcbdaf51" d="M181.99,135.29c-9.52,0-16.56-2.11-21.11-6.33-4.55-4.22-6.83-10.75-6.83-19.58v-47.67c0-1.62.44-2.84,1.31-3.64.87-.81,2.18-1.22,3.93-1.22s3.06.4,3.93,1.22c.87.81,1.31,2.02,1.31,3.64v47.67c0,4.13.53,7.37,1.59,9.72,1.06,2.35,2.86,4.02,5.4,5,2.54.98,6.03,1.48,10.48,1.48h14.97c4.45,0,7.94-.49,10.48-1.48,2.54-.98,4.34-2.65,5.4-5,1.06-2.35,1.59-5.59,1.59-9.72v-47.67c0-1.62.44-2.84,1.31-3.64.87-.81,2.18-1.22,3.93-1.22s3.06.4,3.93,1.22c.87.81,1.31,2.02,1.31,3.64v47.67c0,8.83-2.27,15.36-6.8,19.58-4.53,4.22-11.58,6.33-21.14,6.33h-14.97Z"/><path class="uuid-db6726a7-b0dc-4559-a153-c66ffcbdaf51" d="M335.18,135.53c-1.37.81-2.68,1.06-3.93.75-1.25-.31-2.31-1.1-3.18-2.37l-19.33-29.85h-17.46v26.38c0,3.24-1.75,4.86-5.24,4.86s-5.24-1.62-5.24-4.86V61.71c0-3.24,1.75-4.86,5.24-4.86h29.19c7.61,0,13.44,1.88,17.5,5.64,4.05,3.76,6.08,9.17,6.08,16.23v3.47c0,6.13-1.54,11.02-4.62,14.66-3.08,3.65-7.53,5.91-13.35,6.8l16.34,25.28c1.58,2.7.91,4.9-2,6.59ZM291.27,94.34h23.95c4.74,0,8.11-.93,10.1-2.78,2-1.85,2.99-4.98,2.99-9.37v-3.47c0-4.36-1-7.47-2.99-9.34-2-1.87-5.36-2.8-10.1-2.8h-23.95v27.77Z"/><path class="uuid-db6726a7-b0dc-4559-a153-c66ffcbdaf51" d="M394.55,135.29c-3.49,0-5.24-1.62-5.24-4.86V61.71c0-3.24,1.75-4.86,5.24-4.86,1.79,0,3.53.96,5.24,2.89l50.15,59.93h-2.62v-57.96c0-3.24,1.75-4.86,5.24-4.86s5.24,1.62,5.24,4.86v68.72c0,3.24-1.75,4.86-5.24,4.86-1.87,0-3.62-.96-5.24-2.89l-50.15-59.93h2.62v57.96c0,3.24-1.75,4.86-5.24,4.86Z"/><path class="uuid-db6726a7-b0dc-4559-a153-c66ffcbdaf51" d="M517.37,135.29c-2.62,0-3.93-1.22-3.93-3.64V63.1c0-2.43,1.31-3.65,3.93-3.65s3.93,1.22,3.93,3.65v31.35l35.3-33.67c1.83-1.77,3.66-1.79,5.49-.06,1.95,1.66,2,3.38.12,5.15l-27.44,26.15,32.31,37.25c1.62,1.93,1.43,3.65-.56,5.15-2,1.54-3.83,1.37-5.49-.52l-31.75-36.56-7.98,7.58v26.73c0,2.43-1.31,3.64-3.93,3.64Z"/><path class="uuid-db6726a7-b0dc-4559-a153-c66ffcbdaf51" d="M633.63,135.29c-2.62,0-3.93-1.22-3.93-3.64V63.1c0-2.43,1.31-3.65,3.93-3.65h46.09c2.62,0,3.93,1.22,3.93,3.65s-1.31,3.64-3.93,3.64h-42.16v26.55h27.44c2.62,0,3.93,1.22,3.93,3.64s-1.31,3.65-3.93,3.65h-27.44v27.42h42.16c2.62,0,3.93,1.21,3.93,3.64s-1.31,3.64-3.93,3.64h-46.09Z"/><path class="uuid-db6726a7-b0dc-4559-a153-c66ffcbdaf51" d="M770.23,135.29c-2.62,0-3.93-1.22-3.93-3.64v-25.05l-28.13-41.36c-1.33-2.04-.91-3.74,1.25-5.09,2.25-1.31,4.05-.93,5.42,1.16l25.39,37.49,26.07-37.55c.66-.96,1.47-1.54,2.4-1.74.94-.19,1.92.06,2.96.75,2.29,1.27,2.68,2.93,1.18,4.98l-28.69,41.36v25.05c0,2.43-1.31,3.64-3.93,3.64Z"/></svg>