<?xml version="1.0" encoding="UTF-8"?><svg id="uuid-22258ee4-3bdb-44cc-87ab-5d2f848b5077" xmlns="http://www.w3.org/2000/svg" viewBox="0 0 595.28 841.89"><defs><style>.uuid-b7015bd2-62a4-49aa-922c-0bf489e9b398{fill:#fff;}</style></defs><polygon class="uuid-b7015bd2-62a4-49aa-922c-0bf489e9b398" points="384.64 433.76 340.2 481.13 387.37 530.27 387.51 530.27 393.85 530.3 394.1 511.23 388.1 504.98 365.15 481.06 388.15 457.31 394.16 451.11 394.18 433.79 385.93 433.76 384.64 433.76"/><polygon class="uuid-b7015bd2-62a4-49aa-922c-0bf489e9b398" points="310.19 545.88 286.63 545.88 286.64 273.18 270.85 290.12 270.84 560.58 326 560.58 326 530.05 387.37 530.27 350.51 514.32 326.04 514.55 326 510.95 326 449.76 347.44 449.56 384.64 433.76 326 433.55 326 273.18 310.2 290.12 310.19 545.88"/><path class="uuid-b7015bd2-62a4-49aa-922c-0bf489e9b398" d="M349.29,221.76h-163.99v51.31l101.35.12h39.36v-.12h83.98v-51.31h-60.7ZM270.85,258.37h-69.77v-21.93h52.08c9.75,0,17.68,7.38,17.68,16.45v5.48ZM280.9,235.48,281.39,236.21s15.53.24,24.67.24c7.06-12.34,24.41-13.84,35.09-14.24-13.63,2.78-26.26,11.5-30.96,29.48v6.69h-23.56v-5.48c0-6.07-1.87-11.73-5.11-16.53M394.18,258.37h-68.18v-5.48c0-9.07,7.93-16.45,17.67-16.45h50.51v21.93Z"/><path class="uuid-b7015bd2-62a4-49aa-922c-0bf489e9b398" d="M295.57,691.67c-94.32,0-171.05-76.73-171.05-171.05V218.12c0-94.32,76.73-171.05,171.05-171.05s171.05,76.73,171.05,171.05v302.5c0,94.32-76.73,171.05-171.05,171.05ZM295.57,59.95c-87.22,0-158.17,70.96-158.17,158.17v302.5c0,87.22,70.96,158.17,158.17,158.17h0c87.22,0,158.17-70.96,158.17-158.17V218.12c0-87.22-70.96-158.17-158.17-158.17Z"/><path class="uuid-b7015bd2-62a4-49aa-922c-0bf489e9b398" d="M92.12,794.16c-1.03,0-1.8-.24-2.32-.72-.52-.48-.77-1.2-.77-2.15v-37.64h-14.29c-1.03,0-1.8-.24-2.32-.72-.52-.48-.77-1.2-.77-2.15s.26-1.67.77-2.15c.52-.48,1.29-.72,2.32-.72h34.76c1.03,0,1.8.24,2.32.72.52.48.77,1.2.77,2.15s-.26,1.67-.77,2.15c-.52.48-1.29.72-2.32.72h-14.29v37.64c0,.91-.26,1.62-.79,2.12-.53.5-1.3.75-2.3.75Z"/><path class="uuid-b7015bd2-62a4-49aa-922c-0bf489e9b398" d="M156.56,794.16c-5.62,0-9.78-1.25-12.46-3.74-2.69-2.49-4.03-6.35-4.03-11.56v-28.14c0-.96.26-1.67.77-2.15.52-.48,1.29-.72,2.32-.72s1.8.24,2.32.72c.52.48.77,1.2.77,2.15v28.14c0,2.44.31,4.35.94,5.74.63,1.39,1.69,2.37,3.19,2.95,1.5.58,3.56.87,6.19.87h8.84c2.63,0,4.69-.29,6.19-.87,1.5-.58,2.56-1.56,3.19-2.95.63-1.39.94-3.3.94-5.74v-28.14c0-.96.26-1.67.77-2.15.52-.48,1.29-.72,2.32-.72s1.8.24,2.32.72c.52.48.77,1.2.77,2.15v28.14c0,5.21-1.34,9.07-4.01,11.56-2.68,2.49-6.84,3.74-12.48,3.74h-8.84Z"/><path class="uuid-b7015bd2-62a4-49aa-922c-0bf489e9b398" d="M247,794.3c-.81.48-1.58.63-2.32.44-.74-.18-1.36-.65-1.88-1.4l-11.42-17.62h-10.31v15.57c0,1.91-1.03,2.87-3.09,2.87s-3.09-.96-3.09-2.87v-40.57c0-1.91,1.03-2.87,3.09-2.87h17.23c4.49,0,7.94,1.11,10.33,3.33,2.39,2.22,3.59,5.41,3.59,9.58v2.05c0,3.62-.91,6.51-2.72,8.66-1.82,2.15-4.44,3.49-7.88,4.01l9.65,14.92c.93,1.59.54,2.89-1.18,3.89ZM221.08,769.98h14.14c2.8,0,4.79-.55,5.97-1.64,1.18-1.09,1.77-2.94,1.77-5.53v-2.05c0-2.57-.59-4.41-1.77-5.52-1.18-1.1-3.17-1.66-5.97-1.66h-14.14v16.39Z"/><path class="uuid-b7015bd2-62a4-49aa-922c-0bf489e9b398" d="M282.06,794.16c-2.06,0-3.09-.96-3.09-2.87v-40.57c0-1.91,1.03-2.87,3.09-2.87,1.06,0,2.09.57,3.09,1.71l29.61,35.38h-1.55v-34.22c0-1.91,1.03-2.87,3.09-2.87s3.09.96,3.09,2.87v40.57c0,1.91-1.03,2.87-3.09,2.87-1.11,0-2.14-.57-3.09-1.71l-29.61-35.38h1.55v34.22c0,1.91-1.03,2.87-3.09,2.87Z"/><path class="uuid-b7015bd2-62a4-49aa-922c-0bf489e9b398" d="M354.56,794.16c-1.55,0-2.32-.72-2.32-2.15v-40.47c0-1.44.77-2.15,2.32-2.15s2.32.72,2.32,2.15v18.51l20.84-19.88c1.08-1.05,2.16-1.06,3.24-.03,1.15.98,1.18,1.99.07,3.04l-16.2,15.44,19.07,21.99c.96,1.14.85,2.15-.33,3.04-1.18.91-2.26.81-3.24-.31l-18.74-21.58-4.71,4.47v15.78c0,1.43-.77,2.15-2.32,2.15Z"/><path class="uuid-b7015bd2-62a4-49aa-922c-0bf489e9b398" d="M423.2,794.16c-1.55,0-2.32-.72-2.32-2.15v-40.47c0-1.44.77-2.15,2.32-2.15h27.21c1.55,0,2.32.72,2.32,2.15s-.77,2.15-2.32,2.15h-24.89v15.68h16.2c1.55,0,2.32.72,2.32,2.15s-.77,2.15-2.32,2.15h-16.2v16.19h24.89c1.55,0,2.32.72,2.32,2.15s-.77,2.15-2.32,2.15h-27.21Z"/><path class="uuid-b7015bd2-62a4-49aa-922c-0bf489e9b398" d="M503.85,794.16c-1.55,0-2.32-.72-2.32-2.15v-14.79l-16.61-24.42c-.79-1.21-.54-2.21.74-3.01,1.33-.77,2.39-.55,3.2.68l14.99,22.13,15.39-22.17c.39-.57.86-.91,1.42-1.02.55-.11,1.14.03,1.75.44,1.35.75,1.58,1.73.7,2.94l-16.94,24.42v14.79c0,1.43-.77,2.15-2.32,2.15Z"/></svg>